# xmcd
# 
# Track frame offsets:
#     150
#     17137
#     32937
#     56912
#     73112
#     92737
#     109375
#     120300
#     133405
#     151975
#     158925
#     173075
#     205075
#     219787
#     238300
#     253925
#     265475
#     288050
#     303800
# 
# Disc length: 4313
# 
# Revision: 0
# Processed by: cddbd v1.5.2PL0 Copyright (c) Steve Scherf et al.
# Submitted via: fre:ac v1.0.27
# 
DISCID=1910d713
DTITLE=馬飼野康二 - 王家の紋章
DYEAR=1990
DGENRE=Soundtrack
TTITLE0=王家の紋章序曲 Part 1
TTITLE1=甦える美女アイシス
TTITLE2=(ドラマ) 三千年の過去へ
TTITLE3=母なるナイル
TTITLE4=(ドラマ) めぐり逢い
TTITLE5=キング・オブ・キングス~メンフィスのテーマ
TTITLE6=熱砂のピラミッド
TTITLE7=メディタレイニアン(碧き地中海)
TTITLE8=(ドラマ) 古代戦争
TTITLE9=エジプトの踊り
TTITLE10=剣よりも愛~キャロルのテーマ
TTITLE11=(ドラマ) 婚儀
TTITLE12=時の流れに
TTITLE13=王家の紋章序曲 Part 2
TTITLE14=愛と哀しみの女王・アイシス
TTITLE15=狩りの儀式の音楽
TTITLE16=ヒッタイト王国
TTITLE17=ファラオの花嫁
TTITLE18=メンフィスとキャロル~愛のテーマ
EXTD=
EXTT0=
EXTT1=
EXTT2=
EXTT3=
EXTT4=
EXTT5=
EXTT6=
EXTT7=
EXTT8=
EXTT9=
EXTT10=
EXTT11=
EXTT12=
EXTT13=
EXTT14=
EXTT15=
EXTT16=
EXTT17=
EXTT18=
PLAYORDER=
